<svg width="634" height="116" viewBox="0 0 634 116" fill="none" xmlns="http://www.w3.org/2000/svg">
<path d="M153.722 1.98136L6.96715 48.2956C4.40989 49.1027 4.11535 52.6034 6.50182 53.8264L20.5 61L42.5 71.5L110.669 105.584C112.207 106.354 114.076 105.674 114.762 104.097L157.376 6.03798C158.402 3.6782 156.175 1.207 153.722 1.98136Z" fill="url(#paint0_linear_40_521)"/>
<path d="M44.5 72.5L155 4L61.5 80.5L49 116L44.5 72.5Z" fill="url(#paint1_linear_40_521)"/>
<path d="M61.5 80.5L49 116L81 90.5L61.5 80.5Z" fill="url(#paint2_linear_40_521)"/>
<path d="M196.091 17.9091C196.091 15.7 197.882 13.9091 200.091 13.9091H217.68C219.303 13.9091 220.766 14.8901 221.381 16.392L245.793 75.9498C245.918 76.2551 246.215 76.4545 246.545 76.4545C246.875 76.4545 247.173 76.2551 247.298 75.9498L271.709 16.392C272.325 14.8901 273.787 13.9091 275.411 13.9091H293C295.209 13.9091 297 15.6999 297 17.9091V103C297 105.209 295.209 107 293 107H281.909C279.7 107 277.909 105.209 277.909 103V46.87C277.909 46.6154 277.703 46.4091 277.448 46.4091C277.26 46.4091 277.09 46.5237 277.02 46.6986L254.052 104.033C253.444 105.551 251.974 106.545 250.339 106.545H242.756C241.119 106.545 239.647 105.548 239.041 104.028L216.07 46.4717C216 46.2966 215.831 46.1818 215.642 46.1818C215.388 46.1818 215.182 46.388 215.182 46.6424V103C215.182 105.209 213.391 107 211.182 107H200.091C197.882 107 196.091 105.209 196.091 103V17.9091Z" fill="#2E2E2E"/>
<path d="M332.761 108.318C328.307 108.318 324.337 107.545 320.852 106C317.367 104.424 314.61 102.106 312.579 99.0455C310.579 95.9545 309.579 92.1061 309.579 87.5C309.579 83.6212 310.292 80.3636 311.716 77.7273C313.14 75.0909 315.079 72.9697 317.534 71.3636C319.989 69.7576 322.776 68.5455 325.898 67.7273C329.049 66.9091 332.352 66.3333 335.807 66C339.867 65.5758 343.14 65.1818 345.625 64.8182C348.11 64.4242 349.913 63.8485 351.034 63.0909C352.155 62.3333 352.716 61.2121 352.716 59.7273V59.4545C352.716 56.5758 351.807 54.3485 349.989 52.7727C348.201 51.197 345.655 50.4091 342.352 50.4091C338.867 50.4091 336.095 51.1818 334.034 52.7273C332.929 53.54 332.024 54.466 331.32 55.5054C330.253 57.0798 328.581 58.3439 326.686 58.19L316.576 57.3689C314.169 57.1734 312.454 54.8849 313.356 52.6445C314.343 50.1937 315.69 47.9789 317.398 46C320.064 42.8788 323.504 40.4848 327.716 38.8182C331.958 37.1212 336.867 36.2727 342.443 36.2727C346.322 36.2727 350.034 36.7273 353.579 37.6364C357.155 38.5455 360.322 39.9545 363.079 41.8636C365.867 43.7727 368.064 46.2273 369.67 49.2273C371.276 52.197 372.079 55.7576 372.079 59.9091V103C372.079 105.209 370.289 107 368.079 107H357.716C355.507 107 353.716 105.209 353.716 103V97.6569C353.716 97.4698 353.564 97.3182 353.377 97.3182C353.25 97.3182 353.134 97.3893 353.075 97.5016C351.965 99.608 350.496 101.471 348.67 103.091C346.792 104.727 344.534 106.015 341.898 106.955C339.261 107.864 336.216 108.318 332.761 108.318ZM338.307 94.9545C341.155 94.9545 343.67 94.3939 345.852 93.2727C348.034 92.1212 349.746 90.5758 350.989 88.6364C352.231 86.697 352.852 84.5 352.852 82.0455V77.372C352.852 76.194 351.476 75.3741 350.352 75.7273C349.322 76.0303 348.155 76.3182 346.852 76.5909C345.549 76.8333 344.246 77.0606 342.943 77.2727C341.64 77.4545 340.458 77.6212 339.398 77.7727C337.125 78.1061 335.14 78.6364 333.443 79.3636C331.746 80.0909 330.428 81.0758 329.489 82.3182C328.549 83.5303 328.079 85.0455 328.079 86.8636C328.079 89.5 329.034 91.5151 330.943 92.9091C332.882 94.2727 335.337 94.9545 338.307 94.9545Z" fill="#4F46E5"/>
<path d="M391.102 107C388.893 107 387.102 105.209 387.102 103V41.1818C387.102 38.9727 388.893 37.1818 391.102 37.1818H402.466C404.675 37.1818 406.466 38.9727 406.466 41.1818V103C406.466 105.209 404.675 107 402.466 107H391.102ZM396.829 28.1818C393.951 28.1818 391.481 27.2273 389.42 25.3182C387.39 23.3788 386.375 21.0606 386.375 18.3636C386.375 15.697 387.39 13.4091 389.42 11.5C391.481 9.5606 393.951 8.5909 396.829 8.5909C399.708 8.5909 402.163 9.5606 404.193 11.5C406.254 13.4091 407.284 15.697 407.284 18.3636C407.284 21.0606 406.254 23.3788 404.193 25.3182C402.163 27.2273 399.708 28.1818 396.829 28.1818Z" fill="#4F46E5"/>
<path d="M426.341 107C424.132 107 422.341 105.209 422.341 103V17.9091C422.341 15.7 424.132 13.9091 426.341 13.9091H438.023C440.232 13.9091 442.023 15.6999 442.023 17.9091V86.7727C442.023 88.9819 443.814 90.7727 446.023 90.7727H477.932C480.141 90.7727 481.932 92.5636 481.932 94.7727V103C481.932 105.209 480.141 107 477.932 107H426.341Z" fill="#2E2E2E"/>
<path d="M498.966 107C496.757 107 494.966 105.209 494.966 103V17.9091C494.966 15.7 496.757 13.9091 498.966 13.9091H510.648C512.857 13.9091 514.648 15.6999 514.648 17.9091V86.7727C514.648 88.9819 516.439 90.7727 518.648 90.7727H550.557C552.766 90.7727 554.557 92.5636 554.557 94.7727V103C554.557 105.209 552.766 107 550.557 107H498.966Z" fill="#2E2E2E"/>
<path d="M549.787 19.8746C548.283 17.2082 550.209 13.9091 553.271 13.9091H566.059C567.54 13.9091 568.9 14.728 569.594 16.0374L589.481 53.5983C589.612 53.8454 589.869 54 590.149 54C590.428 54 590.685 53.8454 590.816 53.5983L610.704 16.0374C611.397 14.728 612.757 13.9091 614.239 13.9091H627.026C630.088 13.9091 632.014 17.2082 630.51 19.8746L600.437 73.1759C600.099 73.7757 599.921 74.4528 599.921 75.1415V103C599.921 105.209 598.13 107 595.921 107H584.376C582.167 107 580.376 105.209 580.376 103V75.1415C580.376 74.4528 580.198 73.7757 579.86 73.1759L549.787 19.8746Z" fill="#2E2E2E"/>
<defs>
<linearGradient id="paint0_linear_40_521" x1="131" y1="-9" x2="80" y2="107" gradientUnits="userSpaceOnUse">
<stop stop-color="#A192FA"/>
<stop offset="1" stop-color="#4439D4"/>
</linearGradient>
<linearGradient id="paint1_linear_40_521" x1="99.75" y1="4" x2="52" y2="116" gradientUnits="userSpaceOnUse">
<stop stop-color="#5D55EB"/>
<stop offset="1" stop-color="#362F9D"/>
</linearGradient>
<linearGradient id="paint2_linear_40_521" x1="73.5" y1="81" x2="57.5" y2="116" gradientUnits="userSpaceOnUse">
<stop stop-color="#392FDA"/>
<stop offset="1" stop-color="#2C277F"/>
</linearGradient>
</defs>
</svg>
